<?xml version="1.0" encoding="UTF-8" standalone="no"?>
<!DOCTYPE svg PUBLIC "-//W3C//DTD SVG 1.1//EN"
 "http://www.w3.org/Graphics/SVG/1.1/DTD/svg11.dtd">
<!-- Generated by graphviz version 2.28.0 (20110507.0327)
 -->
<!-- Title: telematics_simplified Pages: 1 -->
<svg width="558pt" height="266pt"
 viewBox="0.00 0.00 558.00 266.00" xmlns="http://www.w3.org/2000/svg" xmlns:xlink="http://www.w3.org/1999/xlink">
<g id="graph1" class="graph" transform="scale(1 1) rotate(0) translate(4 262)">
<title>telematics_simplified</title>
<polygon fill="white" stroke="white" points="-4,5 -4,-262 555,-262 555,5 -4,5"/>
<!-- c1_options -->
<g id="node1" class="node"><title>c1_options</title>
<a xlink:href="#c1_options" xlink:title="abstract options&#10; &#160;xor size&#10; &#160;&#160;&#160;small&#10; &#160;&#160;&#160;large&#10; &#160;cache ?&#10; &#160;&#160;&#160;size : integer&#10; &#160;&#160;&#160;&#160;&#160;fixed ?&#10; &#160;[small &amp;&amp; cache =&gt; fixed]">
<polygon fill="none" stroke="black" points="106.5,-36 -0.5,-36 -0.5,-0 106.5,-0 106.5,-36"/>
<text text-anchor="middle" x="53" y="-14.3" font-family="Times New Roman,serif" font-size="14.00">abstract options</text>
</a>
</g>
<!-- c16_comp -->
<g id="node2" class="node"><title>c16_comp</title>
<a xlink:href="#c16_comp" xlink:title="abstract comp&#10; &#160;version : integer = 1 + 2">
<polygon fill="none" stroke="black" points="246.5,-258 149.5,-258 149.5,-222 246.5,-222 246.5,-258"/>
<text text-anchor="middle" x="198" y="-236.3" font-family="Times New Roman,serif" font-size="14.00">abstract comp</text>
</a>
</g>
<!-- c23_ECU -->
<g id="node3" class="node"><title>c23_ECU</title>
<a xlink:href="#c23_ECU" xlink:title="abstract ECU : comp">
<polygon fill="none" stroke="black" points="341.5,-184 206.5,-184 206.5,-148 341.5,-148 341.5,-184"/>
<text text-anchor="middle" x="274" y="-162.3" font-family="Times New Roman,serif" font-size="14.00">abstract ECU : comp</text>
</a>
</g>
<!-- c23_ECU&#45;&gt;c16_comp -->
<g id="edge2" class="edge"><title>c23_ECU&#45;&gt;c16_comp</title>
<path fill="none" stroke="black" d="M255.989,-184.063C246.311,-193.232 234.214,-204.692 223.577,-214.769"/>
<polygon fill="none" stroke="black" points="220.997,-212.392 216.145,-221.81 225.812,-217.473 220.997,-212.392"/>
</g>
<!-- c24_display -->
<g id="node5" class="node"><title>c24_display</title>
<a xlink:href="#c24_display" xlink:title="abstract display : comp&#10; &#160;server &#45;&gt; ECU&#10; &#160;`options&#10; &#160;[this.version &gt;= server.version]">
<polygon fill="none" stroke="black" points="154.5,-184 7.5,-184 7.5,-148 154.5,-148 154.5,-184"/>
<text text-anchor="middle" x="81" y="-162.3" font-family="Times New Roman,serif" font-size="14.00">abstract display : comp</text>
</a>
</g>
<!-- c24_display&#45;&gt;c1_options -->
<g id="edge6" class="edge"><title>c24_display&#45;&gt;c1_options</title>
<path fill="none" stroke="black" stroke-dasharray="5,2" d="M77.6673,-147.622C72.8497,-122.502 63.895,-75.8096 58.2026,-46.128"/>
<polygon fill="none" stroke="black" points="61.5877,-45.1956 56.2668,-36.0338 54.713,-46.5141 61.5877,-45.1956"/>
</g>
<!-- c24_display&#45;&gt;c16_comp -->
<g id="edge4" class="edge"><title>c24_display&#45;&gt;c16_comp</title>
<path fill="none" stroke="black" d="M108.727,-184.063C124.495,-193.766 144.431,-206.034 161.462,-216.515"/>
<polygon fill="none" stroke="black" points="159.715,-219.55 170.066,-221.81 163.384,-213.588 159.715,-219.55"/>
</g>
<!-- c24_display&#45;&gt;c23_ECU -->
<g id="edge8" class="edge"><title>c24_display&#45;&gt;c23_ECU</title>
<path fill="none" stroke="black" d="M154.516,-166C168.317,-166 182.784,-166 196.696,-166"/>
<polygon fill="black" stroke="black" points="206.711,-166 196.711,-170.5 201.711,-166 196.711,-166 196.711,-166 196.711,-166 201.711,-166 196.711,-161.5 206.711,-166 206.711,-166"/>
<text text-anchor="middle" x="180.25" y="-151.8" font-family="Times New Roman,serif" font-size="14.00">server</text>
</g>
<!-- c43_plaECU -->
<g id="node9" class="node"><title>c43_plaECU</title>
<a xlink:href="#c43_plaECU" xlink:title="abstract plaECU : ECU&#10; &#160;`display 1..2&#10; &#160;&#160;&#160;[server = parent&#10; &#160;&#160;&#160;&#160;!options.cache]">
<polygon fill="none" stroke="black" points="347.5,-110 200.5,-110 200.5,-74 347.5,-74 347.5,-110"/>
<text text-anchor="middle" x="274" y="-88.3" font-family="Times New Roman,serif" font-size="14.00">abstract plaECU : ECU</text>
</a>
</g>
<!-- c43_plaECU&#45;&gt;c23_ECU -->
<g id="edge10" class="edge"><title>c43_plaECU&#45;&gt;c23_ECU</title>
<path fill="none" stroke="black" d="M274,-110.063C274,-118.193 274,-128.124 274,-137.295"/>
<polygon fill="none" stroke="black" points="270.5,-137.559 274,-147.559 277.5,-137.559 270.5,-137.559"/>
</g>
<!-- c43_plaECU&#45;&gt;c24_display -->
<g id="edge12" class="edge"><title>c43_plaECU&#45;&gt;c24_display</title>
<path fill="none" stroke="black" stroke-dasharray="5,2" d="M228.262,-110.063C200.721,-120.337 165.468,-133.489 136.36,-144.348"/>
<polygon fill="none" stroke="black" points="134.89,-141.16 126.744,-147.935 137.337,-147.719 134.89,-141.16"/>
</g>
<!-- c53_ECU1 -->
<g id="node12" class="node"><title>c53_ECU1</title>
<a xlink:href="#c53_ECU1" xlink:title="ECU1 : plaECU">
<polygon fill="none" stroke="black" points="248,-36 142,-36 142,-0 248,-0 248,-36"/>
<text text-anchor="middle" x="195" y="-14.3" font-family="Times New Roman,serif" font-size="14.00">ECU1 : plaECU</text>
</a>
</g>
<!-- c53_ECU1&#45;&gt;c43_plaECU -->
<g id="edge14" class="edge"><title>c53_ECU1&#45;&gt;c43_plaECU</title>
<path fill="none" stroke="black" d="M213.722,-36.063C223.88,-45.3208 236.6,-56.9143 247.735,-67.0621"/>
<polygon fill="none" stroke="black" points="245.39,-69.6607 255.139,-73.81 250.105,-64.4871 245.39,-69.6607"/>
</g>
<!-- c54_ECU2 -->
<g id="node14" class="node"><title>c54_ECU2</title>
<a xlink:href="#c7_ECU2" xlink:title="ECU2 : plaECU ?&#10; &#160;master &#45;&gt; ECU1">
<polygon fill="none" stroke="black" points="419,-36 303,-36 303,-0 419,-0 419,-36"/>
<text text-anchor="middle" x="361" y="-14.3" font-family="Times New Roman,serif" font-size="14.00">ECU2 : plaECU ?</text>
</a>
</g>
<!-- c54_ECU2&#45;&gt;c43_plaECU -->
<g id="edge16" class="edge"><title>c54_ECU2&#45;&gt;c43_plaECU</title>
<path fill="none" stroke="black" d="M340.382,-36.063C329.088,-45.4098 314.917,-57.1375 302.572,-67.3544"/>
<polygon fill="none" stroke="black" points="300.244,-64.7379 294.771,-73.81 304.707,-70.1306 300.244,-64.7379"/>
</g>
<!-- c54_ECU2&#45;&gt;c53_ECU1 -->
<g id="edge18" class="edge"><title>c54_ECU2&#45;&gt;c53_ECU1</title>
<path fill="none" stroke="black" d="M302.783,-18C288.56,-18 273.268,-18 258.8,-18"/>
<polygon fill="black" stroke="black" points="248.437,-18 258.437,-13.5001 253.437,-18 258.437,-18.0001 258.437,-18.0001 258.437,-18.0001 253.437,-18 258.437,-22.5001 248.437,-18 248.437,-18"/>
<text text-anchor="middle" x="275.5" y="-3.8" font-family="Times New Roman,serif" font-size="14.00">master</text>
</g>
<!-- c65_telematicsSystem -->
<g id="node17" class="node"><title>c65_telematicsSystem</title>
<a xlink:href="#c65_telematicsSystem" xlink:title="telematicsSystem&#10; &#160;xor channel&#10; &#160;&#160;&#160;single&#10; &#160;&#160;&#160;dual&#10; &#160;extraDisplay ?&#10; &#160;xor size&#10; &#160;&#160;&#160;small&#10; &#160;&#160;&#160;large&#10; &#160;[dual &lt;=&gt; ECU2&#10; &#160;&#160;extraDisplay &lt;=&gt; #ECU1.display = 2&#10; &#160;&#160;extraDisplay &lt;=&gt; (ECU2 =&gt; #ECU2.display = 2)&#10; &#160;&#160;large &lt;=&gt; !plaECU.display.options.size.small&#10; &#160;&#160;small &lt;=&gt; !plaECU.display.options.size.large]">
<polygon fill="none" stroke="black" points="550.5,-36 437.5,-36 437.5,-0 550.5,-0 550.5,-36"/>
<text text-anchor="middle" x="494" y="-14.3" font-family="Times New Roman,serif" font-size="14.00">telematicsSystem</text>
</a>
</g>
</g>
</svg>
